<?xml version="1.0" encoding="utf-8"?>
<!-- Generator: Adobe Illustrator 24.0.2, SVG Export Plug-In . SVG Version: 6.00 Build 0)  -->
<svg version="1.1" id="Capa_1" xmlns="http://www.w3.org/2000/svg" xmlns:xlink="http://www.w3.org/1999/xlink" x="0px" y="0px"
	 viewBox="0 0 449 126" style="enable-background:new 0 0 449 126;" xml:space="preserve">
<style type="text/css">
	.st0{fill:#5C8D41;}
	.st1{fill:#373942;}
	.st2{fill:#2B2A2F;}
	.st3{fill:#76A54E;}
	.st4{fill:#9FC54D;}
	.st5{fill:#39B54A;}
	.st6{fill:#8CC63F;}
	.st7{fill:#006837;}
	.st8{fill:#FFFFFF;}
</style>
<path class="st5" d="M418.4,11H46.7c-12.3,0-22.3,10-22.3,22.3v57.4c0,12.3,10,22.3,22.3,22.3h371.7c12.3,0,22.3-10,22.3-22.3V33.3
	C440.7,21,430.7,11,418.4,11z"/>
<ellipse transform="matrix(0.7071 -0.7071 0.7071 0.7071 -25.8685 63.0825)" class="st5" cx="63.2" cy="62.8" rx="62.8" ry="62.8"/>
<ellipse transform="matrix(0.7071 -0.7071 0.7071 0.7071 -25.8685 63.0825)" class="st6" cx="63.2" cy="62.8" rx="47.5" ry="47.5"/>
<ellipse transform="matrix(0.7071 -0.7071 0.7071 0.7071 -25.8685 63.0825)" class="st7" cx="63.2" cy="62.8" rx="43.9" ry="43.9"/>
<path class="st6" d="M65.3,86.1l14.9-12c2.6-2.1,3-5.8,0.9-8.4l0,0c-2.1-2.6-5.8-3-8.4-0.9l-11.3,9.1l-11.3-9.1
	c-2.6-2.1-6.4-1.6-8.4,0.9l0,0c-2.1,2.6-1.6,6.4,0.9,8.4l14.9,12c1.1,0.9,2.5,1.3,3.9,1.3C62.8,87.4,64.2,87,65.3,86.1z"/>
<g>
	<path class="st6" d="M30.1,43.9h1h3.2c1.4,0,2.4,0.5,3.1,1.5s1.1,2.4,1.1,4.3c0,2-0.4,3.5-1.1,4.6S35.7,56,34.4,56h-3.2h-1V43.9z
		 M32.2,53.9h2c0.7,0,1.2-0.4,1.6-1.1c0.4-0.7,0.6-1.7,0.6-3c0-1.3-0.2-2.3-0.6-2.9s-1-1-1.8-1h-1.9V53.9z"/>
	<path class="st6" d="M43.2,56.3c-1.3,0-2.2-0.4-2.8-1.2s-0.9-2-0.9-3.7c0-1.4,0.3-2.5,0.9-3.3c0.6-0.8,1.5-1.2,2.6-1.2
		c1.1,0,2,0.4,2.6,1.2c0.6,0.8,0.9,2,0.9,3.5l0,0.7h-5c0,0.7,0.2,1.2,0.4,1.5c0.3,0.4,0.7,0.7,1.3,0.7c0.3,0,0.6-0.1,0.8-0.3
		s0.4-0.4,0.4-0.7h2.1c-0.2,0.9-0.6,1.6-1.1,2.1C44.7,56,44,56.3,43.2,56.3z M44.4,50.7c0-0.6-0.2-1-0.4-1.4
		c-0.3-0.4-0.6-0.6-1.1-0.6c-0.5,0-0.9,0.2-1.2,0.7c-0.2,0.3-0.3,0.7-0.3,1.3H44.4z"/>
	<path class="st6" d="M51.9,49.7c0-0.4-0.1-0.6-0.4-0.8c-0.2-0.2-0.5-0.3-0.9-0.3c-0.4,0-0.7,0.1-0.9,0.2c-0.2,0.1-0.3,0.4-0.3,0.6
		c0,0.2,0.1,0.4,0.3,0.5c0.2,0.1,0.6,0.3,1.2,0.4c1.2,0.3,2,0.7,2.4,1.1c0.4,0.4,0.7,1,0.7,1.8c0,1-0.3,1.7-0.9,2.3
		c-0.6,0.5-1.4,0.8-2.4,0.8c-1.1,0-1.9-0.3-2.5-0.8c-0.6-0.5-0.9-1.3-0.9-2.3h2c0,0.4,0.1,0.8,0.4,1c0.3,0.2,0.6,0.3,1.1,0.3
		c0.5,0,0.8-0.1,1-0.3c0.2-0.2,0.4-0.4,0.4-0.7c0-0.2-0.1-0.4-0.4-0.5c-0.2-0.1-0.7-0.3-1.4-0.5c-1.1-0.3-1.8-0.6-2.2-1
		c-0.4-0.4-0.6-1-0.6-1.7c0-0.9,0.3-1.7,0.8-2.2c0.5-0.5,1.3-0.8,2.3-0.8c1,0,1.8,0.2,2.3,0.7s0.8,1.2,0.9,2.2H51.9z"/>
	<path class="st6" d="M61.8,52.7c-0.1,1.1-0.5,1.9-1.1,2.6s-1.4,1-2.3,1c-1.1,0-1.9-0.4-2.5-1.2c-0.6-0.8-0.9-1.9-0.9-3.3
		c0-1.6,0.3-2.8,0.9-3.7c0.6-0.9,1.5-1.3,2.6-1.3c1,0,1.7,0.3,2.3,0.9s0.9,1.4,1,2.6h-2c0-0.5-0.2-0.8-0.4-1.1s-0.5-0.4-0.9-0.4
		c-0.5,0-0.9,0.2-1.1,0.7c-0.3,0.5-0.4,1.1-0.4,1.9c0,1.1,0.1,1.8,0.4,2.3c0.2,0.4,0.6,0.7,1.2,0.7c0.3,0,0.6-0.1,0.9-0.4
		c0.2-0.3,0.4-0.7,0.4-1.2H61.8z"/>
	<path class="st6" d="M64.9,56.3c-0.7,0-1.2-0.2-1.6-0.7c-0.4-0.5-0.6-1.1-0.6-1.9c0-0.8,0.2-1.4,0.6-1.9c0.4-0.5,0.9-0.8,1.6-0.9
		l1.5-0.3c0.3-0.1,0.6-0.2,0.7-0.3c0,0,0.1-0.1,0.1-0.2c0-0.1,0-0.2,0-0.3v0c0-0.3-0.1-0.6-0.3-0.8c-0.2-0.2-0.5-0.3-1-0.3
		c-0.3,0-0.6,0.1-0.8,0.3c-0.2,0.2-0.3,0.5-0.4,0.9h-1.9c0.1-1.2,0.4-2,0.9-2.4c0.5-0.5,1.3-0.7,2.3-0.7c0.9,0,1.7,0.2,2.2,0.7
		c0.5,0.5,0.8,1.1,0.8,2v4.8c0,0.5,0,0.9,0.1,1.1c0.1,0.2,0.2,0.3,0.3,0.4v0V56h-1h-1v0c-0.1-0.3-0.1-0.7-0.2-1.1v0
		C66.7,55.8,65.9,56.3,64.9,56.3z M67.2,52.7v-1c-0.1,0.1-0.3,0.2-0.6,0.2L66,52.1c-0.5,0.1-0.9,0.3-1.1,0.5
		c-0.2,0.2-0.3,0.5-0.3,0.9c0,0.4,0.1,0.6,0.2,0.8c0.2,0.2,0.4,0.3,0.7,0.3c0.7,0,1.2-0.3,1.5-0.9l0,0c0-0.1,0.1-0.2,0.1-0.4
		C67.2,53,67.2,52.9,67.2,52.7z"/>
	<path class="st6" d="M70.8,47h0.9h0.9v1.6l0.3-0.5c0.5-0.8,1-1.3,1.8-1.3c0.1,0,0.3,0,0.4,0v2.4c-0.2,0-0.3,0-0.5,0
		c-0.6,0-1.1,0.2-1.4,0.5c-0.3,0.4-0.4,0.9-0.4,1.6V56h-1h-1V47z"/>
	<path class="st6" d="M79.5,57.9c0.5,0,0.9-0.1,1.2-0.4c0.3-0.3,0.4-0.7,0.4-1.2v-1.5c0,0,0,0,0,0c-0.5,0.8-1.2,1.2-2,1.2
		c-1,0-1.7-0.4-2.3-1.2s-0.8-2-0.8-3.4c0-1.4,0.3-2.6,0.8-3.4s1.3-1.3,2.3-1.3c0.9,0,1.5,0.4,2,1.3l0.1,0.2V47H83v9.2
		c0,1-0.3,1.9-1,2.5s-1.5,0.9-2.6,0.9c-1,0-1.8-0.2-2.3-0.7c-0.6-0.5-0.9-1.1-1-2h2.1c0,0.3,0.2,0.5,0.4,0.6
		C78.8,57.8,79.1,57.9,79.5,57.9z M79.5,48.8c-0.5,0-0.9,0.2-1.2,0.7c-0.3,0.5-0.4,1.1-0.4,2c0,0.9,0.1,1.5,0.4,2
		c0.3,0.5,0.7,0.7,1.2,0.7c0.5,0,0.9-0.2,1.2-0.7c0.3-0.5,0.4-1.1,0.4-2c0-0.9-0.1-1.5-0.4-2C80.4,49.1,80,48.8,79.5,48.8z"/>
	<path class="st6" d="M86.7,52.7c0,0.5,0.1,0.9,0.3,1.2c0.2,0.3,0.5,0.4,0.9,0.4c0.5,0,0.9-0.2,1.1-0.5s0.4-0.9,0.4-1.6V47h1h1v9
		h-0.9h-0.9v-1.3c-0.1,0.1-0.1,0.3-0.2,0.4c-0.5,0.7-1.2,1.1-2,1.1c-0.8,0-1.4-0.3-1.9-0.8s-0.7-1.3-0.7-2.4v-6h1h1V52.7z"/>
	<path class="st6" d="M96.4,56.3c-1.3,0-2.2-0.4-2.8-1.2s-0.9-2-0.9-3.7c0-1.4,0.3-2.5,0.9-3.3c0.6-0.8,1.5-1.2,2.6-1.2
		c1.1,0,2,0.4,2.6,1.2c0.6,0.8,0.9,2,0.9,3.5l0,0.7h-5c0,0.7,0.2,1.2,0.4,1.5c0.3,0.4,0.7,0.7,1.3,0.7c0.3,0,0.6-0.1,0.8-0.3
		s0.4-0.4,0.4-0.7h2.1c-0.2,0.9-0.6,1.6-1.1,2.1C97.9,56,97.2,56.3,96.4,56.3z M97.6,50.7c0-0.6-0.2-1-0.4-1.4
		c-0.3-0.4-0.6-0.6-1.1-0.6c-0.5,0-0.9,0.2-1.2,0.7c-0.2,0.3-0.3,0.7-0.3,1.3H97.6z"/>
</g>
<g>
	<g>
		<path class="st8" d="M168.7,19.4h2.6h8c3.4,0,6,1.2,7.7,3.7c1.8,2.5,2.6,6.1,2.6,10.8c0,4.9-0.9,8.7-2.8,11.5
			c-1.8,2.8-4.4,4.1-7.7,4.1h-7.9h-2.6V19.4z M173.9,44.3h5.1c1.7,0,3-0.9,4-2.7c1-1.8,1.5-4.3,1.5-7.3c0-3.3-0.5-5.7-1.5-7.3
			c-1-1.6-2.5-2.4-4.5-2.4h-4.6V44.3z"/>
		<path class="st8" d="M193.3,27.2h2.4h2.4v22.3h-2.4h-2.4V27.2z M193.4,19.1h4.8v5.4h-4.8V19.1z"/>
		<path class="st8" d="M202.7,27.2h2.3h2.3v3.7c0.2-0.6,0.5-1.2,0.9-1.7c1.1-1.7,2.6-2.6,4.5-2.6c1.7,0,3.1,0.6,4.1,1.8
			c0.5,0.5,0.8,1.1,1.1,1.8l0.6-1c1.1-1.7,2.5-2.6,4.3-2.6c1.9,0,3.4,0.6,4.6,1.9c1.1,1.3,1.7,3,1.7,5.2v15.7h-2.4h-2.4V35
			c0-1.1-0.2-2-0.7-2.6c-0.4-0.6-1.1-0.9-1.9-0.9c-1.1,0-1.9,0.4-2.5,1.2c-0.6,0.8-0.9,1.9-0.9,3.4v13.3h-2.4h-2.4V35.4
			c0-1.3-0.2-2.2-0.7-2.9c-0.5-0.7-1.2-1-2.1-1c-1,0-1.7,0.4-2.3,1.2c-0.5,0.8-0.8,1.9-0.8,3.4v13.3h-2.4h-2.4V27.2z"/>
		<path class="st8" d="M241.2,50.1c-3.1,0-5.4-1-7-3c-1.6-2-2.3-5.1-2.4-9.1c0-3.5,0.8-6.2,2.3-8.2c1.6-2,3.7-3,6.3-3
			c2.8,0,5,1,6.5,3c1.5,2,2.2,4.9,2.2,8.7l0,1.7h-12.4c0.1,1.6,0.4,2.9,0.9,3.7c0.7,1.1,1.7,1.6,3.2,1.6c0.8,0,1.4-0.2,2-0.6
			c0.5-0.4,0.9-1,1-1.7h5.1c-0.5,2.2-1.4,3.9-2.8,5.2C244.8,49.4,243.2,50.1,241.2,50.1z M244.2,36.2c-0.1-1.4-0.4-2.6-0.9-3.4
			c-0.6-1-1.6-1.5-2.8-1.5c-1.3,0-2.2,0.6-2.9,1.7c-0.4,0.8-0.7,1.8-0.8,3.1H244.2z"/>
		<path class="st8" d="M252.4,27.2h2.3h2.3v3.4l0.6-1.1c1.2-2,2.9-2.9,5-2.9c1.9,0,3.5,0.7,4.6,2c1.2,1.3,1.7,3.1,1.7,5.3v15.6h-2.4
			h-2.4V35.6c0-1.3-0.3-2.4-0.8-3.1c-0.5-0.7-1.3-1.1-2.3-1.1c-1.3,0-2.2,0.5-2.9,1.5c-0.7,1-1,2.5-1,4.3v12.1h-2.4h-2.4V27.2z"/>
		<path class="st8" d="M283.8,33.9c0-0.9-0.3-1.6-0.9-2.1c-0.6-0.5-1.3-0.8-2.3-0.8c-1,0-1.7,0.2-2.2,0.5c-0.5,0.4-0.7,0.9-0.7,1.6
			c0,0.5,0.3,1,0.8,1.3c0.5,0.3,1.5,0.7,2.9,1c2.9,0.8,5,1.6,6.1,2.6c1.1,1,1.7,2.4,1.7,4.3c0,2.4-0.7,4.3-2.2,5.6s-3.5,2-6.1,2
			c-2.7,0-4.8-0.7-6.3-2c-1.5-1.3-2.3-3.2-2.3-5.7h4.9c0,1.1,0.3,1.9,1,2.4c0.6,0.6,1.5,0.9,2.7,0.9c1.1,0,2-0.2,2.6-0.6
			s0.9-1,0.9-1.8c0-0.5-0.3-0.9-0.9-1.3c-0.6-0.3-1.7-0.7-3.4-1.1c-2.7-0.7-4.6-1.5-5.6-2.5c-1-1-1.5-2.4-1.5-4.3
			c0-2.3,0.7-4.1,2-5.4c1.3-1.3,3.2-2,5.6-2c2.5,0,4.4,0.6,5.7,1.9s2.1,3,2.2,5.4H283.8z"/>
		<path class="st8" d="M292.7,27.2h2.4h2.4v22.3h-2.4h-2.4V27.2z M292.7,19.1h4.8v5.4h-4.8V19.1z"/>
		<path class="st8" d="M303.5,46.9c-1.7-2.1-2.5-5-2.5-8.5c0-3.6,0.8-6.5,2.5-8.6c1.7-2.1,4-3.2,6.8-3.2c2.9,0,5.2,1.1,6.8,3.2
			s2.5,5,2.5,8.6c0,3.6-0.8,6.4-2.5,8.5c-1.7,2.1-4,3.2-6.8,3.2C307.5,50.1,305.2,49,303.5,46.9z M313.6,43.4
			c0.7-1.2,1.1-2.8,1.1-5.1c0-2.2-0.4-3.9-1.1-5.1s-1.8-1.7-3.3-1.7c-1.4,0-2.5,0.6-3.3,1.7c-0.7,1.2-1.1,2.9-1.1,5.1
			c0,2.2,0.4,3.9,1.1,5.1c0.7,1.2,1.8,1.7,3.3,1.7C311.8,45.2,312.8,44.6,313.6,43.4z M307.7,24.2l3.2-6.1h5.3l-5,6.1H307.7z"/>
		<path class="st8" d="M323,27.2h2.3h2.3v3.4l0.6-1.1c1.2-2,2.9-2.9,5-2.9c1.9,0,3.5,0.7,4.6,2c1.2,1.3,1.7,3.1,1.7,5.3v15.6h-2.4
			h-2.4V35.6c0-1.3-0.3-2.4-0.8-3.1c-0.5-0.7-1.3-1.1-2.3-1.1c-1.3,0-2.2,0.5-2.9,1.5c-0.7,1-1,2.5-1,4.3v12.1h-2.4H323V27.2z"/>
	</g>
</g>
<g>
	<path class="st8" d="M166.9,72.8c-0.5,5.1-2.2,9.1-5.1,12.1c-2.8,3-6.4,4.5-10.7,4.5c-5.2,0-9.4-2.1-12.5-6.4S134,73,134,65.8
		c0-7.2,1.5-13,4.6-17.2c3.1-4.3,7.2-6.4,12.5-6.4c4.3,0,7.9,1.4,10.7,4.3s4.5,6.8,5.1,11.7h-7.7c-0.3-2.5-1.1-4.4-2.6-5.8
		c-1.4-1.4-3.3-2.2-5.5-2.2c-2.8,0-5.1,1.4-6.8,4.2s-2.5,6.6-2.5,11.4c0,4.8,0.8,8.6,2.5,11.4c1.7,2.8,4,4.2,6.8,4.2
		c2.2,0,4-0.8,5.4-2.3s2.3-3.6,2.6-6.2H166.9z"/>
	<path class="st8" d="M174.3,84.3c-2.5-3.1-3.8-7.4-3.8-12.7c0-5.4,1.3-9.6,3.8-12.8c2.5-3.2,5.9-4.7,10.2-4.7
		c4.3,0,7.7,1.6,10.2,4.7c2.5,3.2,3.8,7.4,3.8,12.8c0,5.4-1.3,9.6-3.8,12.7c-2.5,3.1-5.9,4.7-10.2,4.7
		C180.2,89.1,176.8,87.5,174.3,84.3z M189.3,79.2c1.1-1.7,1.7-4.2,1.7-7.6c0-3.3-0.6-5.9-1.7-7.6c-1.1-1.7-2.7-2.6-4.9-2.6
		c-2.1,0-3.8,0.9-4.9,2.6c-1.1,1.7-1.7,4.3-1.7,7.6c0,3.3,0.6,5.8,1.7,7.6c1.1,1.7,2.7,2.6,4.9,2.6
		C186.6,81.7,188.2,80.9,189.3,79.2z"/>
	<path class="st8" d="M205.6,84.3c-2.5-3.1-3.8-7.4-3.8-12.7c0-5.4,1.3-9.6,3.8-12.8c2.5-3.2,5.9-4.7,10.2-4.7
		c4.3,0,7.7,1.6,10.2,4.7c2.5,3.2,3.8,7.4,3.8,12.8c0,5.4-1.3,9.6-3.8,12.7c-2.5,3.1-5.9,4.7-10.2,4.7
		C211.5,89.1,208.1,87.5,205.6,84.3z M220.7,79.2c1.1-1.7,1.7-4.2,1.7-7.6c0-3.3-0.6-5.9-1.7-7.6c-1.1-1.7-2.7-2.6-4.9-2.6
		c-2.1,0-3.8,0.9-4.9,2.6c-1.1,1.7-1.7,4.3-1.7,7.6c0,3.3,0.6,5.8,1.7,7.6c1.1,1.7,2.7,2.6,4.9,2.6
		C217.9,81.7,219.5,80.9,220.7,79.2z"/>
	<path class="st8" d="M234.6,55h3.4h3.4v4.9l0.6-1c2-3.2,4.6-4.8,8-4.8c3.4,0,6.1,1.6,8.1,4.7c2,3.2,3,7.4,3,12.8
		c0,5.4-1,9.6-3,12.7c-2,3.1-4.7,4.7-8.1,4.7c-3.4,0-6-1.6-8-4.7l-0.2-0.4v17.2h-3.6h-3.6V55z M247.6,81.9c2,0,3.5-0.9,4.6-2.6
		c1-1.7,1.6-4.3,1.6-7.6c0-3.3-0.5-5.9-1.6-7.6c-1-1.7-2.6-2.6-4.5-2.6s-3.5,0.9-4.5,2.6s-1.5,4.3-1.5,7.6c0,3.3,0.5,5.9,1.5,7.6
		S245.6,81.9,247.6,81.9z"/>
	<path class="st8" d="M277.9,89.1c-4.6,0-8.1-1.5-10.4-4.5s-3.5-7.6-3.5-13.6c0-5.1,1.2-9.2,3.5-12.3c2.3-3,5.5-4.5,9.4-4.5
		c4.2,0,7.4,1.5,9.6,4.5s3.3,7.3,3.3,13l0,2.5h-18.6c0.2,2.4,0.7,4.3,1.4,5.5c1,1.6,2.6,2.4,4.8,2.4c1.2,0,2.1-0.3,2.9-1
		c0.8-0.6,1.3-1.5,1.5-2.6h7.7c-0.7,3.2-2.1,5.8-4.2,7.7C283.3,88.1,280.8,89.1,277.9,89.1z M282.3,68.4c-0.1-2.1-0.6-3.8-1.4-5
		c-1-1.5-2.4-2.3-4.2-2.3c-1.9,0-3.3,0.9-4.3,2.6c-0.6,1.1-1,2.7-1.2,4.7H282.3z"/>
	<path class="st8" d="M294.5,55h3.4h3.4v5.8l0.9-2c1.7-3.1,3.8-4.7,6.5-4.7c0.5,0,1.1,0,1.5,0.1v8.9c-0.6-0.1-1.3-0.2-2-0.2
		c-2.3,0-3.9,0.7-5,2c-1.1,1.3-1.6,3.4-1.6,6.1v17.2h-3.6h-3.6V55z"/>
	<path class="st8" d="M321,89.1c-2.5,0-4.6-0.9-6.1-2.6c-1.5-1.8-2.2-4.1-2.2-7.1c0-3,0.7-5.3,2-7.1s3.3-2.9,6-3.4l5.6-1.1
		c1.1-0.2,2-0.6,2.7-1.1c0.2-0.1,0.3-0.3,0.5-0.7c0.1-0.3,0.2-0.7,0.2-1v-0.1c0-1.3-0.4-2.2-1.2-2.9c-0.8-0.6-2-0.9-3.6-0.9
		c-1.3,0-2.3,0.4-3.1,1.2c-0.8,0.8-1.2,1.9-1.4,3.4h-6.9c0.5-4.3,1.6-7.3,3.4-9c1.8-1.7,4.7-2.6,8.7-2.6c3.5,0,6.2,0.9,8.1,2.6
		c1.9,1.7,2.9,4.1,2.9,7.2v17.7c0,1.9,0.1,3.2,0.3,4c0.2,0.7,0.6,1.2,1.2,1.5v0v1.1h-3.9h-3.9v0c-0.3-1.1-0.5-2.5-0.6-4v0
		C327.6,87.4,324.6,89.1,321,89.1z M329.6,75.8v-3.6c-0.5,0.4-1.2,0.7-2.1,0.9l-2.6,0.6c-2,0.5-3.3,1.1-4,1.8
		c-0.7,0.7-1.1,1.8-1.1,3.2c0,1.3,0.3,2.4,0.8,3.1s1.4,1.1,2.4,1.1c2.5,0,4.4-1.1,5.7-3.4l0.1-0.2c0.2-0.3,0.3-0.8,0.5-1.4
		C329.6,77.1,329.6,76.5,329.6,75.8z"/>
	<path class="st8" d="M355.5,88.4c-1.2,0.1-2.7,0.2-4.4,0.2c-2.5,0-4.3-0.6-5.4-1.8c-1.1-1.2-1.7-3.1-1.7-5.7V61.2h-3.8V55h3.8V46
		h7.2V55h4.4v6.3h-4.4v18.3c0,1,0.2,1.6,0.6,1.9s1.2,0.4,2.4,0.4h1.5V88.4z"/>
	<path class="st8" d="M360.3,55h3.6h3.6v33.2h-3.6h-3.6V55z M360.3,42.9h7.1V51h-7.1V42.9z"/>
	<path class="st8" d="M371.7,55h3.9h3.9l5.8,24.3h0l5.8-24.3h3.8h3.8L389,88.2h-3.8h-3.8L371.7,55z"/>
	<path class="st8" d="M409.3,89.1c-2.5,0-4.6-0.9-6.1-2.6c-1.5-1.8-2.2-4.1-2.2-7.1c0-3,0.7-5.3,2-7.1s3.3-2.9,6-3.4l5.6-1.1
		c1.1-0.2,2-0.6,2.7-1.1c0.2-0.1,0.3-0.3,0.5-0.7c0.1-0.3,0.2-0.7,0.2-1v-0.1c0-1.3-0.4-2.2-1.2-2.9c-0.8-0.6-2-0.9-3.6-0.9
		c-1.3,0-2.3,0.4-3.1,1.2c-0.8,0.8-1.2,1.9-1.4,3.4h-6.9c0.5-4.3,1.6-7.3,3.4-9c1.8-1.7,4.7-2.6,8.7-2.6c3.5,0,6.2,0.9,8.1,2.6
		c1.9,1.7,2.9,4.1,2.9,7.2v17.7c0,1.9,0.1,3.2,0.3,4c0.2,0.7,0.6,1.2,1.2,1.5v0v1.1h-3.9h-3.9v0c-0.3-1.1-0.5-2.5-0.6-4v0
		C415.9,87.4,413,89.1,409.3,89.1z M418,75.8v-3.6c-0.5,0.4-1.2,0.7-2.1,0.9l-2.6,0.6c-2,0.5-3.3,1.1-4,1.8
		c-0.7,0.7-1.1,1.8-1.1,3.2c0,1.3,0.3,2.4,0.8,3.1s1.4,1.1,2.4,1.1c2.5,0,4.4-1.1,5.7-3.4l0.1-0.2c0.2-0.3,0.3-0.8,0.5-1.4
		C417.9,77.1,418,76.5,418,75.8z"/>
</g>
</svg>
