<?xml version="1.0" encoding="utf-8"?>
<!-- Generator: Adobe Illustrator 24.0.1, SVG Export Plug-In . SVG Version: 6.00 Build 0)  -->
<svg version="1.1" id="Capa_1" xmlns="http://www.w3.org/2000/svg" xmlns:xlink="http://www.w3.org/1999/xlink" x="0px" y="0px"
	 viewBox="0 0 326 78" style="enable-background:new 0 0 326 78;" xml:space="preserve">
<style type="text/css">
	.st0{fill:#FFFFFF;}
	.st1{fill:#CBCBCB;}
	.st2{fill:#FDC202;}
	.st3{fill:#FAFAFA;}
	.st4{opacity:0.1;}
	.st5{fill:#F49230;}
	.st6{fill:#FD6B08;}
	.st7{fill:#DC2D3D;}
	.st8{fill:#935124;}
	.st9{fill:#D17931;}
	.st10{fill:#976C48;}
	.st11{fill:#E3B576;}
	.st12{fill:#068945;}
	.st13{fill:#32A47F;}
	.st14{fill:#026838;}
	.st15{fill:#023D1E;}
	.st16{fill:#0D844F;}
	.st17{fill:#28AC73;}
	.st18{display:none;}
	.st19{display:inline;}
	.st20{enable-background:new    ;}
	.st21{fill:#F0C701;}
	.st22{fill:#E4232B;}
	.st23{fill:url(#SVGID_1_);}
	.st24{fill:url(#SVGID_2_);}
	.st25{fill:url(#SVGID_3_);}
	.st26{fill:url(#SVGID_4_);}
	.st27{fill:url(#SVGID_5_);}
	.st28{fill:url(#SVGID_6_);}
	.st29{fill:url(#SVGID_7_);}
	.st30{fill:url(#SVGID_8_);}
	.st31{fill:url(#SVGID_9_);}
	.st32{fill:url(#SVGID_10_);}
	.st33{display:inline;fill:url(#SVGID_11_);}
	.st34{fill:url(#SVGID_12_);}
	.st35{fill:url(#SVGID_13_);}
	.st36{fill:url(#SVGID_14_);}
	.st37{opacity:0.48;fill:url(#SVGID_15_);}
	.st38{opacity:0.48;fill:url(#SVGID_16_);}
	.st39{opacity:0.41;fill:url(#SVGID_17_);}
	.st40{opacity:0.58;fill:url(#SVGID_18_);}
	.st41{fill:#EEF0F1;}
	.st42{fill:url(#SVGID_19_);}
	.st43{fill:#CDD0D1;}
	.st44{fill:url(#SVGID_20_);}
	.st45{fill:url(#SVGID_21_);}
	.st46{fill:url(#SVGID_22_);}
	.st47{fill:#363538;}
	.st48{filter:url(#Adobe_OpacityMaskFilter);}
	.st49{opacity:0.75;mask:url(#SVGID_23_);}
	.st50{fill:#282828;}
	.st51{fill:url(#SVGID_24_);}
	.st52{fill:url(#SVGID_25_);}
	.st53{fill:url(#SVGID_26_);}
	.st54{fill:url(#SVGID_27_);}
	.st55{filter:url(#Adobe_OpacityMaskFilter_1_);}
	.st56{opacity:0.75;mask:url(#SVGID_28_);}
	.st57{fill:url(#SVGID_29_);}
	.st58{fill:url(#SVGID_30_);}
	.st59{fill:url(#SVGID_31_);}
	.st60{fill:url(#SVGID_32_);}
	.st61{filter:url(#Adobe_OpacityMaskFilter_2_);}
	.st62{opacity:0.75;mask:url(#SVGID_33_);}
	.st63{fill:url(#SVGID_34_);}
	.st64{fill:url(#SVGID_35_);}
	.st65{fill:url(#SVGID_36_);}
	.st66{fill:url(#SVGID_37_);}
	.st67{filter:url(#Adobe_OpacityMaskFilter_3_);}
	.st68{opacity:0.75;mask:url(#SVGID_38_);}
	.st69{fill:url(#SVGID_39_);}
	.st70{fill:url(#SVGID_40_);}
	.st71{fill:url(#SVGID_41_);}
	.st72{fill:url(#SVGID_42_);}
	.st73{filter:url(#Adobe_OpacityMaskFilter_4_);}
	.st74{opacity:0.75;mask:url(#SVGID_43_);}
	.st75{fill:url(#SVGID_44_);}
	.st76{fill:#B5B5B5;}
	.st77{fill:url(#SVGID_45_);}
	.st78{fill:url(#SVGID_46_);}
	.st79{fill:url(#SVGID_47_);}
	.st80{filter:url(#Adobe_OpacityMaskFilter_5_);}
	.st81{opacity:0.75;mask:url(#SVGID_48_);}
	.st82{fill:#999999;}
	.st83{fill-rule:evenodd;clip-rule:evenodd;fill:#F8F6FB;}
	.st84{fill-rule:evenodd;clip-rule:evenodd;fill:#A1A1A1;}
	.st85{fill:#C7C7C7;}
	.st86{fill:#F7931E;}
	.st87{fill:url(#SVGID_49_);}
	.st88{fill:url(#SVGID_50_);}
	.st89{fill:#B3B3B3;}
	.st90{fill:#FFFFFF;stroke:#4D4D4D;stroke-width:3;stroke-linecap:round;stroke-linejoin:round;stroke-miterlimit:10;}
	.st91{fill:#4D4D4D;}
	.st92{fill:none;stroke:#666666;stroke-width:0.5;stroke-miterlimit:10;}
	.st93{fill:none;stroke:#4D4D4D;stroke-width:0.75;stroke-linecap:round;stroke-linejoin:round;stroke-miterlimit:10;}
	.st94{fill:#FFFFFF;stroke:#4D4D4D;stroke-linecap:round;stroke-linejoin:round;stroke-miterlimit:10;}
	.st95{clip-path:url(#SVGID_52_);}
	.st96{fill:#4D4D4F;}
	.st97{fill:#808080;}
	.st98{fill:#01468A;}
	.st99{filter:url(#Adobe_OpacityMaskFilter_6_);}
	.st100{clip-path:url(#SVGID_55_);fill:#FFFFFF;}
	.st101{clip-path:url(#SVGID_55_);}
	.st102{clip-path:url(#SVGID_57_);fill:url(#SVGID_58_);}
	.st103{clip-path:url(#SVGID_55_);fill:none;stroke:#FFFFFF;stroke-width:1.5;}
	.st104{mask:url(#SVGID_53_);}
	.st105{clip-path:url(#SVGID_60_);fill:#01468A;}
	.st106{clip-path:url(#SVGID_60_);}
	.st107{clip-path:url(#SVGID_62_);fill:url(#SVGID_63_);}
	.st108{clip-path:url(#SVGID_60_);fill:none;stroke:#FFFFFF;stroke-width:1.5;}
	.st109{filter:url(#Adobe_OpacityMaskFilter_7_);}
	.st110{opacity:0.5;clip-path:url(#SVGID_60_);fill:#FFFFFF;}
	.st111{filter:url(#Adobe_OpacityMaskFilter_8_);}
	.st112{opacity:0.5;clip-path:url(#SVGID_60_);mask:url(#SVGID_66_);fill:#231F20;}
	.st113{fill:#2A2A80;}
	.st114{fill:none;stroke:#2A2A80;stroke-width:0.896;stroke-miterlimit:10;}
	.st115{fill:#136E22;}
	.st116{clip-path:url(#SVGID_70_);}
	.st117{fill:url(#SVGID_71_);}
	.st118{fill:none;stroke:url(#SVGID_72_);stroke-width:0.8649;stroke-miterlimit:10;}
	.st119{fill:url(#SVGID_73_);}
	.st120{fill:url(#SVGID_74_);}
	.st121{fill:url(#SVGID_75_);}
	.st122{fill:url(#SVGID_76_);}
	.st123{fill:url(#SVGID_77_);}
	.st124{fill:url(#SVGID_78_);}
	.st125{fill:url(#SVGID_79_);}
	.st126{fill:url(#SVGID_80_);}
	.st127{fill:url(#SVGID_81_);}
	.st128{font-family:'FuturaBT-BoldCondensed';}
	.st129{font-size:26.5297px;}
</style>
<g>
	<path class="st115" d="M325.4,0.4h-309C7.9,0.4,1,7.3,1,15.9v46.4c0,8.6,6.9,15.5,15.5,15.5h309"/>
	<g>
		<defs>
			<path id="SVGID_69_" d="M325.4,0.4h-309C7.9,0.4,1,7.3,1,15.9v46.4c0,8.6,6.9,15.5,15.5,15.5h309V0.4z"/>
		</defs>
		<clipPath id="SVGID_1_">
			<use xlink:href="#SVGID_69_"  style="overflow:visible;"/>
		</clipPath>
		<g style="clip-path:url(#SVGID_1_);">
			<g>
				<g>
					<g>
						<g>
							<linearGradient id="SVGID_2_" gradientUnits="userSpaceOnUse" x1="16.3558" y1="12.5475" x2="60.8284" y2="85.7562">
								<stop  offset="0" style="stop-color:#FFFFFF"/>
								<stop  offset="1" style="stop-color:#000000;stop-opacity:0"/>
							</linearGradient>
							<path class="st24" d="M32.7,75.5c-9.2,0-17.9-3.4-24.6-9.7c-14.5-13.6-15.3-36.5-1.7-51c6.6-7,15.5-11.1,25.1-11.4
								c9.6-0.3,18.8,3.1,25.9,9.7c3.6,3.3,6.4,7.3,8.4,11.7l1,2.2H50.6l-0.5-0.6c-0.8-1.1-1.7-2-2.5-2.9c-4.3-4-9.8-6.1-15.6-5.9
								c-5.8,0.2-11.2,2.6-15.2,6.9c-4,4.3-6.1,9.8-5.9,15.6c0.2,5.8,2.6,11.2,6.9,15.2c4.3,4,9.8,6.1,15.6,5.9
								c5.8-0.2,11.2-2.6,15.2-6.9c0.8-0.9,1.6-1.9,2.3-3l0.5-0.7h15.6l-0.8,2.1c-1.7,4.2-4.1,8.1-7.2,11.4
								c-6.6,7-15.5,11.1-25.1,11.4C33.5,75.5,33.1,75.5,32.7,75.5z"/>
						</g>
					</g>
				</g>
				<g>
					<g>
						<g>
							<linearGradient id="SVGID_3_" gradientUnits="userSpaceOnUse" x1="11.0472" y1="3.6007" x2="54.6057" y2="75.3046">
								<stop  offset="0" style="stop-color:#FFFFFF"/>
								<stop  offset="1" style="stop-color:#000000;stop-opacity:0"/>
							</linearGradient>
							<path style="fill:none;stroke:url(#SVGID_3_);stroke-width:0.8649;stroke-miterlimit:10;" d="M32.8,81
								C22.2,81,12.2,77,4.5,69.8c-16.7-15.6-17.6-41.9-2-58.7C10.1,3,20.3-1.6,31.4-2C42.5-2.4,53.1,1.6,61.2,9.1
								c4.1,3.8,7.3,8.4,9.6,13.5l1.1,2.5H53.4l-0.5-0.7c-1-1.3-1.9-2.3-2.9-3.3c-4.9-4.6-11.3-7-18-6.7c-6.7,0.2-12.9,3-17.5,7.9
								c-4.6,4.9-7,11.3-6.7,18c0.2,6.7,3,12.9,7.9,17.5c4.9,4.6,11.2,7,18,6.7c6.7-0.2,12.9-3,17.5-7.9c1-1,1.8-2.2,2.7-3.5
								l0.5-0.8h18l-1,2.4c-1.9,4.9-4.7,9.3-8.3,13.1c-7.6,8.1-17.8,12.8-28.9,13.1C33.7,80.9,33.3,81,32.8,81z"/>
						</g>
					</g>
				</g>
				<linearGradient id="SVGID_4_" gradientUnits="userSpaceOnUse" x1="-46.7432" y1="-0.9581" x2="65.2519" y2="107.4818">
					<stop  offset="0" style="stop-color:#FFFFFF"/>
					<stop  offset="1" style="stop-color:#000000;stop-opacity:0"/>
				</linearGradient>
				<path class="st26" d="M-9.3,8.6c-7.2,8.3-11.5,19.1-11.5,30.9c0,13,5.3,24.8,13.8,33.4l35.4-36.4L-9.3,8.6z"/>
				<g>
					<linearGradient id="SVGID_5_" gradientUnits="userSpaceOnUse" x1="-16.5" y1="-26.0449" x2="95.4947" y2="82.3945">
						<stop  offset="0" style="stop-color:#FFFFFF"/>
						<stop  offset="1" style="stop-color:#000000;stop-opacity:0"/>
					</linearGradient>
					<path class="st27" d="M-3.4,8.6l37.7,27.9L25.5-7.3C14-5.6,3.9,0.2-3.4,8.6z"/>
					<linearGradient id="SVGID_6_" gradientUnits="userSpaceOnUse" x1="-25.5943" y1="-16.651" x2="86.3998" y2="91.7878">
						<stop  offset="0" style="stop-color:#FFFFFF"/>
						<stop  offset="1" style="stop-color:#000000;stop-opacity:0"/>
					</linearGradient>
					<path class="st28" d="M62.8,3.3L34.3,36.4L-1.1,72.8c8.6,8.6,20.4,13.9,33.5,13.9c26.1,0,47.3-21.2,47.3-47.3
						C79.6,25,73.1,12,62.8,3.3z"/>
					<linearGradient id="SVGID_7_" gradientUnits="userSpaceOnUse" x1="-4.6226" y1="-46.9191" x2="107.3738" y2="61.5221">
						<stop  offset="0" style="stop-color:#FFFFFF"/>
						<stop  offset="1" style="stop-color:#000000;stop-opacity:0"/>
					</linearGradient>
					<path class="st29" d="M35.7-19.9c-2.3,0-4.6,0.2-6.9,0.5l8.8,43.7L66.2-8.7C57.9-15.7,47.3-19.9,35.7-19.9z"/>
				</g>
				<path class="st115" d="M61.1,39.5c0,15.9-12.9,28.7-28.7,28.7c-15.9,0-28.7-12.9-28.7-28.7c0-15.9,12.9-28.7,28.7-28.7
					C48.2,10.7,61.1,23.6,61.1,39.5z"/>
			</g>
			<g>
				<g>
					<linearGradient id="SVGID_8_" gradientUnits="userSpaceOnUse" x1="30.5548" y1="38.7985" x2="48.8162" y2="38.7985">
						<stop  offset="0" style="stop-color:#FFFFFF"/>
						<stop  offset="1" style="stop-color:#000000;stop-opacity:0"/>
					</linearGradient>
					<polygon class="st30" points="48.8,30 30.6,47.6 48.8,36.3 					"/>
					<linearGradient id="SVGID_9_" gradientUnits="userSpaceOnUse" x1="30.5548" y1="35.61" x2="48.7922" y2="35.61">
						<stop  offset="0" style="stop-color:#FFFFFF"/>
						<stop  offset="1" style="stop-color:#000000;stop-opacity:0"/>
					</linearGradient>
					<polygon class="st31" points="42.5,23.6 30.6,47.6 48.8,23.6 					"/>
					<linearGradient id="SVGID_10_" gradientUnits="userSpaceOnUse" x1="30.5548" y1="35.61" x2="36.2122" y2="35.61">
						<stop  offset="0" style="stop-color:#FFFFFF"/>
						<stop  offset="1" style="stop-color:#000000;stop-opacity:0"/>
					</linearGradient>
					<polygon class="st32" points="36.2,23.6 30.6,47.6 30.6,23.6 					"/>
					<linearGradient id="SVGID_11_" gradientUnits="userSpaceOnUse" x1="12.3072" y1="39.031" x2="48.7922" y2="39.031">
						<stop  offset="0" style="stop-color:#FFFFFF"/>
						<stop  offset="1" style="stop-color:#000000;stop-opacity:0"/>
					</linearGradient>
					<path style="fill:url(#SVGID_11_);" d="M48.8,54.4h-24c-8.9,0-12.2-5.5-12.5-11.7c0.3-7.6,2.7-13.5,5.7-19.1h8.9
						c-1.8,4-12.2,22.7-0.6,23.9h4.3L48.8,54.4z"/>
					<linearGradient id="SVGID_12_" gradientUnits="userSpaceOnUse" x1="30.5548" y1="45.5144" x2="48.8162" y2="45.5144">
						<stop  offset="0" style="stop-color:#FFFFFF"/>
						<stop  offset="1" style="stop-color:#000000;stop-opacity:0"/>
					</linearGradient>
					<polygon class="st34" points="48.8,42.4 30.6,47.6 48.8,48.7 					"/>
				</g>
			</g>
		</g>
	</g>
</g>
<text transform="matrix(1 0 0 1 61.522 48.6152)" class="st0 st128 st129">COOPERATIVA VIRTUAL</text>
</svg>
