<?xml version="1.0" encoding="utf-8"?>
<!-- Generator: Adobe Illustrator 24.0.1, SVG Export Plug-In . SVG Version: 6.00 Build 0)  -->
<svg version="1.1" id="Capa_1" xmlns="http://www.w3.org/2000/svg" xmlns:xlink="http://www.w3.org/1999/xlink" x="0px" y="0px"
	 viewBox="0 0 397 109" enable-background="new 0 0 397 109" xml:space="preserve">
<rect x="59.4" y="20.3" fill="#EB9008" width="338" height="73"/>
<g>
	<path fill="#FFFFFF" d="M124.5,50.4v2.9c0,4.1-2.2,6.1-6.5,6.1c-3.4,0-6.5-1.4-6.5-6.4V43c0-5,3.1-6.4,6.5-6.4
		c3.7,0,6.5,1.1,6.5,5.9v2.4h-5.1v-3c0-0.9-0.3-1.7-1.4-1.7c-1.1,0-1.3,0.8-1.3,1.7v12.4c0,0.9,0.3,1.7,1.3,1.7
		c1.1,0,1.4-0.8,1.4-1.7l0-3.7H124.5z"/>
	<path fill="#FFFFFF" d="M138.8,53c0,5-3.1,6.4-6.5,6.4c-3.4,0-6.5-1.4-6.5-6.4V43c0-5,3.1-6.4,6.5-6.4c3.4,0,6.5,1.4,6.5,6.4V53z
		 M131,54.2c0,0.9,0.3,1.7,1.4,1.7s1.4-0.8,1.4-1.7V41.8c0-0.9-0.3-1.7-1.4-1.7s-1.4,0.8-1.4,1.7V54.2z"/>
	<path fill="#FFFFFF" d="M153.2,53c0,5-3.1,6.4-6.5,6.4c-3.4,0-6.5-1.4-6.5-6.4V43c0-5,3.1-6.4,6.5-6.4c3.4,0,6.5,1.4,6.5,6.4V53z
		 M145.3,54.2c0,0.9,0.3,1.7,1.4,1.7s1.4-0.8,1.4-1.7V41.8c0-0.9-0.3-1.7-1.4-1.7s-1.4,0.8-1.4,1.7V54.2z"/>
	<path fill="#FFFFFF" d="M154.6,59V37h6.3c4.1,0,6.7,0.9,6.7,4.7v4c0,3.3-2.9,4.8-6,4.8h-1.9V59H154.6z M159.7,47.3h0.8
		c1.8,0,1.9-1,1.9-3.6s-0.1-3.6-1.9-3.6h-0.8V47.3z"/>
	<path fill="#FFFFFF" d="M168.9,59V37h10.7v3.3H174v4.8h5.3v3.3H174v7.2h5.5V59H168.9z"/>
	<path fill="#FFFFFF" d="M180.3,59V37h5.2c4.9,0,7.8,0.5,7.8,5.1c0,2.8-1.1,4.6-3.9,5v0.1c2.5,0.1,3.9,1,3.9,4.1v4.6
		c0,0.9,0.2,2.2,0.8,3.1h-5.2c-0.6-0.9-0.7-2.2-0.7-3.1v-4.7c0-1.5-0.9-2.3-1.9-2.3h-0.8V59H180.3z M185.5,45.8
		c2.3,0,2.7-0.8,2.7-2.8c0-2-0.3-2.8-2.7-2.8V45.8z"/>
	<path fill="#FFFFFF" d="M205.2,37l2.8,22H203l-0.6-5.4h-2.8l-0.8,5.4h-4.3l3.7-22H205.2z M202,50.2l-0.9-9.8H201l-0.9,9.8H202z"/>
	<path fill="#FFFFFF" d="M206.6,40.3V37h12.3v3.3h-3.6V59h-5.1V40.3H206.6z"/>
	<path fill="#FFFFFF" d="M219.9,59V37h5.1v22H219.9z"/>
	<path fill="#FFFFFF" d="M225.9,37h5.5l1.2,17h0.1l2.2-17h4.8l-3.7,22h-6.8L225.9,37z"/>
	<path fill="#FFFFFF" d="M248.9,37l2.8,22h-5.1l-0.6-5.4h-2.8l-0.8,5.4h-4.3l3.7-22H248.9z M245.7,50.2l-0.9-9.8h-0.1l-0.9,9.8
		H245.7z"/>
	<path fill="#FFFFFF" d="M259.5,37h5.5l1.2,17h0.1l2.2-17h4.8l-3.7,22h-6.8L259.5,37z"/>
	<path fill="#FFFFFF" d="M274.2,59V37h5.1v22H274.2z"/>
	<path fill="#FFFFFF" d="M280.6,59V37h5.2c4.9,0,7.8,0.5,7.8,5.1c0,2.8-1.1,4.6-3.9,5v0.1c2.5,0.1,3.9,1,3.9,4.1v4.6
		c0,0.9,0.2,2.2,0.8,3.1h-5.2c-0.6-0.9-0.7-2.2-0.7-3.1v-4.7c0-1.5-0.9-2.3-1.9-2.3h-0.8V59H280.6z M285.7,45.8
		c2.3,0,2.7-0.8,2.7-2.8c0-2-0.3-2.8-2.7-2.8V45.8z"/>
	<path fill="#FFFFFF" d="M294.2,40.3V37h12.3v3.3h-3.6V59h-5.1V40.3H294.2z"/>
	<path fill="#FFFFFF" d="M320.6,52.7c-0.1,4.7-1.7,6.7-6.5,6.7c-6.3,0-6.5-4.4-6.5-7.2V37h5.1v15.9c0,1.8,0,3.1,1.3,3.1
		c1.4,0,1.4-1.3,1.4-3.1V37h5.1V52.7z"/>
	<path fill="#FFFFFF" d="M332.5,37l2.8,22h-5.1l-0.6-5.4h-2.8L326,59h-4.3l3.7-22H332.5z M329.2,50.2l-0.9-9.8h-0.1l-0.9,9.8H329.2z
		"/>
	<path fill="#FFFFFF" d="M336.3,59V37h5.1v18.7h5.6V59H336.3z"/>
</g>
<g>
	<path fill="#FFFFFF" d="M111.5,66.4h5c2.6,0,3.1,1.9,3.1,2.8c0,1.1-0.5,2-1.5,2.3c0.8,0.4,1.2,0.7,1.2,2.5c0,1.4,0,1.8,0.4,2v0.3
		h-2.3c-0.1-0.5-0.2-1-0.2-2c0-1.3-0.1-1.9-1.6-1.9h-2.1v3.9h-2V66.4z M116,70.7c1.1,0,1.6-0.4,1.6-1.3c0-0.5-0.2-1.3-1.4-1.3h-2.6
		v2.6H116z"/>
	<path fill="#FFFFFF" d="M127.3,74.1c-0.5,1.8-2,2.3-3.2,2.3c-2.1,0-3.6-1-3.6-4c0-0.9,0.3-3.7,3.5-3.7c1.4,0,3.4,0.7,3.4,4v0.3h-5
		c0.1,0.5,0.2,1.8,1.7,1.8c0.5,0,1.1-0.3,1.2-0.8H127.3z M125.4,71.8c-0.1-1.2-0.9-1.5-1.5-1.5c-0.9,0-1.4,0.6-1.5,1.5H125.4z"/>
	<path fill="#FFFFFF" d="M134.5,74.8c0,0.9,0.2,1.1,0.4,1.1v0.3h-2.1c-0.1-0.3-0.1-0.5-0.2-0.9c-0.4,0.5-1.1,1.1-2.4,1.1
		c-1.1,0-2.2-0.6-2.2-2.1c0-1.4,0.9-2.2,2.1-2.3l1.7-0.3c0.3,0,0.7-0.2,0.7-0.6c0-0.8-0.8-0.9-1.3-0.9c-1,0-1.1,0.6-1.2,1h-1.9
		c0.2-2.2,1.8-2.6,3.3-2.6c1,0,2.9,0.3,2.9,2.1V74.8z M132.7,72.7c-0.2,0.2-0.5,0.3-1.3,0.4c-0.7,0.1-1.3,0.3-1.3,1.1
		c0,0.7,0.5,0.9,0.9,0.9c0.8,0,1.7-0.5,1.7-1.4V72.7z"/>
	<path fill="#FFFFFF" d="M138.2,76.2h-1.9v-9.8h1.9V76.2z"/>
	<path fill="#FFFFFF" d="M142,68.1h-1.9v-1.8h1.9V68.1z M142,68.9v7.3h-1.9v-7.3H142z"/>
	<path fill="#FFFFFF" d="M150.2,73.6c-0.1,0.8-0.7,2.9-3.3,2.9c-2.7,0-3.4-2.1-3.4-3.6c0-2.4,1-4,3.5-4c1.2,0,3,0.5,3.2,2.8h-1.9
		c-0.1-0.5-0.4-1.2-1.2-1.2H147c-1.2,0-1.5,1.2-1.5,2.1c0,0.8,0,2.4,1.5,2.4c1,0,1.3-0.9,1.3-1.3H150.2z"/>
	<path fill="#FFFFFF" d="M157.8,74.1c-0.5,1.8-2,2.3-3.2,2.3c-2.1,0-3.6-1-3.6-4c0-0.9,0.3-3.7,3.5-3.7c1.4,0,3.4,0.7,3.4,4v0.3h-5
		c0.1,0.5,0.2,1.8,1.7,1.8c0.5,0,1.1-0.3,1.2-0.8H157.8z M155.9,71.8c-0.1-1.2-0.9-1.5-1.5-1.5c-0.9,0-1.4,0.6-1.5,1.5H155.9z"/>
	<path fill="#FFFFFF" d="M168.9,74.8c0,0.9,0.2,1.1,0.4,1.1v0.3h-2.1c-0.1-0.3-0.1-0.5-0.2-0.9c-0.4,0.5-1.1,1.1-2.4,1.1
		c-1.1,0-2.2-0.6-2.2-2.1c0-1.4,0.9-2.2,2.1-2.3l1.7-0.3c0.3,0,0.7-0.2,0.7-0.6c0-0.8-0.8-0.9-1.3-0.9c-1,0-1.1,0.6-1.2,1h-1.9
		c0.2-2.2,1.8-2.6,3.3-2.6c1,0,2.9,0.3,2.9,2.1V74.8z M167,72.7c-0.2,0.2-0.5,0.3-1.3,0.4c-0.7,0.1-1.3,0.3-1.3,1.1
		c0,0.7,0.5,0.9,0.9,0.9c0.8,0,1.7-0.5,1.7-1.4V72.7z"/>
	<path fill="#FFFFFF" d="M177.3,68.9v10.1h-1.9v-3.7h0c-0.4,0.7-1.1,1.1-2.1,1.1c-2.3,0-3.1-2.1-3.1-3.7c0-2,0.9-4,3.2-4
		c1.2,0,1.8,0.8,2,1.3h0v-1.1H177.3z M173.8,74.8c0.9,0,1.6-0.7,1.6-2.2c0-2-1.2-2.2-1.6-2.2c-0.7,0-1.6,0.5-1.6,2.3
		C172.1,74,172.6,74.8,173.8,74.8z"/>
	<path fill="#FFFFFF" d="M185.5,76.2h-1.8v-1h0c-0.4,0.8-1.2,1.2-2.2,1.2c-1.4,0-2.5-0.8-2.5-2.7v-4.8h1.9v4.5
		c0,1.1,0.7,1.3,1.2,1.3c0.6,0,1.5-0.4,1.5-1.7v-4.2h1.9V76.2z"/>
	<path fill="#FFFFFF" d="M189.3,68.9v7.3h-1.9v-7.3H189.3z M188.9,67.9h-1.4l1.3-2h2.1L188.9,67.9z"/>
	<path fill="#FFFFFF" d="M199.1,71.1c-0.1-0.5-0.2-1-1.3-1s-1.2,0.4-1.2,0.7c0,1.2,4.6,0.3,4.6,3c0,2.1-2.1,2.5-3.2,2.5
		c-1.7,0-3.5-0.6-3.5-2.5h2c0,0.6,0.4,1.1,1.6,1.1c1,0,1.2-0.5,1.2-0.8c0-1.2-4.5-0.3-4.5-3c0-1.1,0.7-2.4,2.9-2.4
		c1.4,0,3.1,0.4,3.3,2.4H199.1z"/>
	<path fill="#FFFFFF" d="M209.2,76.2h-1.8v-1h0c-0.4,0.8-1.2,1.2-2.2,1.2c-1.4,0-2.5-0.8-2.5-2.7v-4.8h1.9v4.5
		c0,1.1,0.7,1.3,1.2,1.3c0.6,0,1.5-0.4,1.5-1.7v-4.2h1.9V76.2z"/>
	<path fill="#FFFFFF" d="M215.1,71.1c-0.1-0.5-0.2-1-1.3-1s-1.2,0.4-1.2,0.7c0,1.2,4.6,0.3,4.6,3c0,2.1-2.1,2.5-3.2,2.5
		c-1.7,0-3.5-0.6-3.5-2.5h2c0,0.6,0.4,1.1,1.6,1.1c1,0,1.2-0.5,1.2-0.8c0-1.2-4.5-0.3-4.5-3c0-1.1,0.7-2.4,2.9-2.4
		c1.4,0,3.1,0.4,3.3,2.4H215.1z"/>
	<path fill="#FFFFFF" d="M224.6,68.9h1.2v1.4h-1.2v4c0,0.4,0,0.6,0.8,0.6c0.1,0,0.3,0,0.4,0v1.5c-0.3,0-0.6,0-0.9,0h-0.2
		c-1.7,0-2-0.6-2-1.6v-4.4h-1v-1.4h1v-2h1.9V68.9z"/>
	<path fill="#FFFFFF" d="M227,68.9h1.8v1.3h0c0.4-0.7,0.8-1.5,2-1.5c0.1,0,0.2,0,0.4,0v1.9c-0.2,0-0.4,0-0.5,0
		c-1.5,0-1.8,0.9-1.8,1.7v3.8H227V68.9z"/>
	<path fill="#FFFFFF" d="M238,74.8c0,0.9,0.2,1.1,0.4,1.1v0.3h-2.1c-0.1-0.3-0.1-0.5-0.2-0.9c-0.4,0.5-1.1,1.1-2.4,1.1
		c-1.1,0-2.2-0.6-2.2-2.1c0-1.4,0.9-2.2,2.1-2.3l1.7-0.3c0.3,0,0.7-0.2,0.7-0.6c0-0.8-0.8-0.9-1.3-0.9c-1,0-1.1,0.6-1.2,1h-1.9
		c0.2-2.2,1.8-2.6,3.3-2.6c1,0,2.9,0.3,2.9,2.1V74.8z M236.1,72.7c-0.2,0.2-0.5,0.3-1.3,0.4c-0.7,0.1-1.3,0.3-1.3,1.1
		c0,0.7,0.5,0.9,0.9,0.9c0.9,0,1.7-0.5,1.7-1.4V72.7z"/>
	<path fill="#FFFFFF" d="M246.3,76.2h-1.9v-4.4c0-0.5,0-1.4-1.2-1.4c-0.8,0-1.5,0.6-1.5,1.7v4.2h-1.9v-7.3h1.8V70h0
		c0.3-0.4,0.8-1.3,2.2-1.3c1.4,0,2.5,0.8,2.5,2.4V76.2z"/>
	<path fill="#FFFFFF" d="M252.2,71.1c-0.1-0.5-0.2-1-1.3-1s-1.2,0.4-1.2,0.7c0,1.2,4.6,0.3,4.6,3c0,2.1-2.1,2.5-3.2,2.5
		c-1.7,0-3.5-0.6-3.5-2.5h2c0,0.6,0.4,1.1,1.6,1.1c1,0,1.2-0.5,1.2-0.8c0-1.2-4.5-0.3-4.5-3c0-1.1,0.7-2.4,2.9-2.4
		c1.4,0,3.1,0.4,3.3,2.4H252.2z"/>
	<path fill="#FFFFFF" d="M261.6,74.8c0,0.9,0.2,1.1,0.4,1.1v0.3h-2.1c-0.1-0.3-0.1-0.5-0.2-0.9c-0.4,0.5-1.1,1.1-2.4,1.1
		c-1.1,0-2.2-0.6-2.2-2.1c0-1.4,0.9-2.2,2.1-2.3l1.7-0.3c0.3,0,0.7-0.2,0.7-0.6c0-0.8-0.8-0.9-1.3-0.9c-1,0-1.1,0.6-1.2,1h-1.9
		c0.2-2.2,1.8-2.6,3.3-2.6c1,0,2.9,0.3,2.9,2.1V74.8z M259.7,72.7c-0.2,0.2-0.5,0.3-1.3,0.4c-0.7,0.1-1.3,0.3-1.3,1.1
		c0,0.7,0.5,0.9,0.9,0.9c0.8,0,1.7-0.5,1.7-1.4V72.7z"/>
	<path fill="#FFFFFF" d="M269.6,73.6c-0.1,0.8-0.7,2.9-3.3,2.9c-2.7,0-3.4-2.1-3.4-3.6c0-2.4,1-4,3.5-4c1.2,0,3,0.5,3.2,2.8h-1.9
		c-0.1-0.5-0.4-1.2-1.2-1.2h-0.1c-1.2,0-1.5,1.2-1.5,2.1c0,0.8,0,2.4,1.5,2.4c1,0,1.3-0.9,1.3-1.3H269.6z"/>
	<path fill="#FFFFFF" d="M277.2,73.6c-0.1,0.8-0.7,2.9-3.3,2.9c-2.7,0-3.4-2.1-3.4-3.6c0-2.4,1-4,3.5-4c1.2,0,3,0.5,3.2,2.8h-1.9
		c-0.1-0.5-0.4-1.2-1.2-1.2H274c-1.2,0-1.5,1.2-1.5,2.1c0,0.8,0,2.4,1.5,2.4c1,0,1.3-0.9,1.3-1.3H277.2z"/>
	<path fill="#FFFFFF" d="M280.5,68.1h-1.9v-1.8h1.9V68.1z M280.5,68.9v7.3h-1.9v-7.3H280.5z"/>
	<path fill="#FFFFFF" d="M285.7,76.4c-2,0-3.7-1.2-3.7-3.8s1.8-3.8,3.7-3.8c2,0,3.7,1.2,3.7,3.8S287.6,76.4,285.7,76.4z M285.7,70.3
		c-1.5,0-1.8,1.3-1.8,2.2s0.3,2.2,1.8,2.2c1.5,0,1.8-1.3,1.8-2.2S287.2,70.3,285.7,70.3z"/>
	<path fill="#FFFFFF" d="M297.3,76.2h-1.9v-4.4c0-0.5,0-1.4-1.2-1.4c-0.8,0-1.5,0.6-1.5,1.7v4.2h-1.9v-7.3h1.8V70h0
		c0.3-0.4,0.8-1.3,2.2-1.3c1.4,0,2.5,0.8,2.5,2.4V76.2z"/>
	<path fill="#FFFFFF" d="M305.4,74.1c-0.5,1.8-2,2.3-3.2,2.3c-2.1,0-3.6-1-3.6-4c0-0.9,0.3-3.7,3.5-3.7c1.4,0,3.4,0.7,3.4,4v0.3h-5
		c0.1,0.5,0.2,1.8,1.7,1.8c0.5,0,1.1-0.3,1.2-0.8H305.4z M303.5,71.8c-0.1-1.2-0.9-1.5-1.5-1.5c-0.9,0-1.4,0.6-1.5,1.5H303.5z"/>
	<path fill="#FFFFFF" d="M310.9,71.1c-0.1-0.5-0.2-1-1.3-1s-1.2,0.4-1.2,0.7c0,1.2,4.6,0.3,4.6,3c0,2.1-2.1,2.5-3.2,2.5
		c-1.7,0-3.5-0.6-3.5-2.5h2c0,0.6,0.4,1.1,1.6,1.1c1,0,1.2-0.5,1.2-0.8c0-1.2-4.5-0.3-4.5-3c0-1.1,0.7-2.4,2.9-2.4
		c1.4,0,3.1,0.4,3.3,2.4H310.9z"/>
	<path fill="#FFFFFF" d="M324.5,74.1c-0.5,1.8-2,2.3-3.2,2.3c-2.1,0-3.6-1-3.6-4c0-0.9,0.3-3.7,3.5-3.7c1.4,0,3.4,0.7,3.4,4v0.3h-5
		c0.1,0.5,0.2,1.8,1.7,1.8c0.5,0,1.1-0.3,1.2-0.8H324.5z M322.6,71.8c-0.1-1.2-0.9-1.5-1.5-1.5c-0.9,0-1.4,0.6-1.5,1.5H322.6z"/>
	<path fill="#FFFFFF" d="M332.4,76.2h-1.9v-4.4c0-0.5,0-1.4-1.2-1.4c-0.8,0-1.5,0.6-1.5,1.7v4.2h-1.9v-7.3h1.8V70h0
		c0.3-0.4,0.8-1.3,2.2-1.3c1.4,0,2.5,0.8,2.5,2.4V76.2z"/>
	<path fill="#FFFFFF" d="M340,76.2h-1.9v-9.8h1.9V76.2z"/>
	<path fill="#FFFFFF" d="M343.8,68.9v7.3h-1.9v-7.3H343.8z M343.4,67.9H342l1.3-2h2.1L343.4,67.9z"/>
	<path fill="#FFFFFF" d="M352.2,76.2h-1.9v-4.4c0-0.5,0-1.4-1.2-1.4c-0.8,0-1.5,0.6-1.5,1.7v4.2h-1.9v-7.3h1.8V70h0
		c0.3-0.4,0.8-1.3,2.2-1.3c1.4,0,2.5,0.8,2.5,2.4V76.2z"/>
	<path fill="#FFFFFF" d="M360.3,74.1c-0.5,1.8-2,2.3-3.2,2.3c-2.1,0-3.6-1-3.6-4c0-0.9,0.3-3.7,3.5-3.7c1.4,0,3.4,0.7,3.4,4v0.3h-5
		c0.1,0.5,0.2,1.8,1.7,1.8c0.5,0,1.1-0.3,1.2-0.8H360.3z M358.4,71.8c-0.1-1.2-0.9-1.5-1.5-1.5c-0.9,0-1.4,0.6-1.5,1.5H358.4z"/>
	<path fill="#FFFFFF" d="M367.6,74.8c0,0.9,0.2,1.1,0.4,1.1v0.3h-2.1c-0.1-0.3-0.1-0.5-0.2-0.9c-0.4,0.5-1.1,1.1-2.4,1.1
		c-1.1,0-2.2-0.6-2.2-2.1c0-1.4,0.9-2.2,2.1-2.3l1.7-0.3c0.3,0,0.7-0.2,0.7-0.6c0-0.8-0.8-0.9-1.3-0.9c-1,0-1.1,0.6-1.2,1h-1.9
		c0.2-2.2,1.8-2.6,3.3-2.6c1,0,2.9,0.3,2.9,2.1V74.8z M365.7,72.7c-0.2,0.2-0.5,0.3-1.3,0.4c-0.7,0.1-1.3,0.3-1.3,1.1
		c0,0.7,0.5,0.9,0.9,0.9c0.8,0,1.7-0.5,1.7-1.4V72.7z"/>
</g>
<g id="XMLID_463_">
	<image overflow="visible" opacity="0.75" width="115" height="116" xlink:href="B6DC11E8.png"  transform="matrix(1 0 0 1 -2 0)">
	</image>
	<g>
		<g>
			<g id="XMLID_244_">
				<linearGradient id="XMLID_47_" gradientUnits="userSpaceOnUse" x1="52.8692" y1="6.6114" x2="52.8692" y2="109.9891">
					<stop  offset="0" style="stop-color:#FFFFFF"/>
					<stop  offset="0.1851" style="stop-color:#F8F8F9"/>
					<stop  offset="0.4603" style="stop-color:#E4E6E8"/>
					<stop  offset="0.7903" style="stop-color:#C3C8CD"/>
					<stop  offset="1" style="stop-color:#AAB1B9"/>
				</linearGradient>
				<linearGradient id="XMLID_48_" gradientUnits="userSpaceOnUse" x1="4.7707" y1="54.907" x2="100.9677" y2="54.907">
					<stop  offset="0" style="stop-color:#FFFFFF"/>
					<stop  offset="8.335739e-02" style="stop-color:#F8F8F9"/>
					<stop  offset="0.2074" style="stop-color:#E4E6E8"/>
					<stop  offset="0.356" style="stop-color:#C3C8CD"/>
					<stop  offset="0.4504" style="stop-color:#AAB1B9"/>
					<stop  offset="0.9109" style="stop-color:#FBFBFB"/>
					<stop  offset="0.9338" style="stop-color:#F1F2F3"/>
					<stop  offset="0.9727" style="stop-color:#D6D9DD"/>
					<stop  offset="1" style="stop-color:#BFC4CA"/>
				</linearGradient>
				<path id="XMLID_247_" fill="url(#XMLID_47_)" stroke="url(#XMLID_48_)" stroke-width="0.5" stroke-miterlimit="10" d="M52.9,7.1
					C26.4,7.1,5,28.5,5,54.9c0,26.4,21.4,47.8,47.8,47.8c26.4,0,47.8-21.4,47.8-47.8C100.7,28.5,79.3,7.1,52.9,7.1z M52.9,98.5
					C28.8,98.5,9.2,79,9.2,54.9s19.5-43.6,43.6-43.6s43.6,19.5,43.6,43.6S77,98.5,52.9,98.5z"/>
				<linearGradient id="XMLID_49_" gradientUnits="userSpaceOnUse" x1="52.8693" y1="6.6114" x2="52.8693" y2="109.989">
					<stop  offset="0" style="stop-color:#FFFFFF"/>
					<stop  offset="0.1851" style="stop-color:#F8F8F9"/>
					<stop  offset="0.4603" style="stop-color:#E4E6E8"/>
					<stop  offset="0.7903" style="stop-color:#C3C8CD"/>
					<stop  offset="1" style="stop-color:#AAB1B9"/>
				</linearGradient>
				<circle id="XMLID_246_" fill="url(#XMLID_49_)" cx="52.9" cy="54.9" r="43.6"/>
				<linearGradient id="XMLID_50_" gradientUnits="userSpaceOnUse" x1="52.8693" y1="10.8739" x2="52.8693" y2="105.1277">
					<stop  offset="0" style="stop-color:#AAB1B9"/>
					<stop  offset="0.2097" style="stop-color:#C3C8CD"/>
					<stop  offset="0.5397" style="stop-color:#E4E6E8"/>
					<stop  offset="0.8149" style="stop-color:#F8F8F9"/>
					<stop  offset="1" style="stop-color:#FFFFFF"/>
				</linearGradient>
				<circle id="XMLID_245_" fill="url(#XMLID_50_)" cx="52.9" cy="54.9" r="43.6"/>
			</g>
			<linearGradient id="XMLID_51_" gradientUnits="userSpaceOnUse" x1="52.8693" y1="13.8236" x2="52.8693" y2="96.6412">
				<stop  offset="0" style="stop-color:#FCC304"/>
				<stop  offset="0.2751" style="stop-color:#FAC004"/>
				<stop  offset="0.5092" style="stop-color:#F5B504"/>
				<stop  offset="0.7283" style="stop-color:#ECA404"/>
				<stop  offset="0.9371" style="stop-color:#E08B04"/>
				<stop  offset="1" style="stop-color:#DB8204"/>
			</linearGradient>
			<path id="XMLID_243_" fill="url(#XMLID_51_)" d="M93.9,64C100.3,33.7,74,7.5,43.8,13.8c-16,3.4-28.6,16-31.9,31.9
				C5.5,76.1,31.7,102.3,62,96C78,92.6,90.6,80,93.9,64z"/>
			<radialGradient id="XMLID_53_" cx="54.6437" cy="55.2147" r="50.3922" gradientUnits="userSpaceOnUse">
				<stop  offset="0" style="stop-color:#FCD304"/>
				<stop  offset="2.944255e-02" style="stop-color:#FBD004"/>
				<stop  offset="0.6843" style="stop-color:#E49804"/>
				<stop  offset="1" style="stop-color:#DB8204"/>
			</radialGradient>
			<path id="XMLID_242_" fill="url(#XMLID_53_)" d="M90.1,45.6c6,25.6-13.7,48.4-38.4,47.6c-20.2-0.6-36.4-16.9-37.1-37.1
				c-0.8-24.8,22-44.5,47.6-38.4C76,20.9,86.8,31.8,90.1,45.6z"/>
			<g id="XMLID_237_">
				<linearGradient id="XMLID_54_" gradientUnits="userSpaceOnUse" x1="14.5694" y1="54.907" x2="91.169" y2="54.907">
					<stop  offset="0" style="stop-color:#FCC304"/>
					<stop  offset="0.2751" style="stop-color:#FAC004"/>
					<stop  offset="0.5092" style="stop-color:#F5B504"/>
					<stop  offset="0.7283" style="stop-color:#ECA404"/>
					<stop  offset="0.9371" style="stop-color:#E08B04"/>
					<stop  offset="1" style="stop-color:#DB8204"/>
				</linearGradient>
				<path id="XMLID_238_" fill="url(#XMLID_54_)" d="M52.9,93.2c-21.1,0-38.3-17.2-38.3-38.3s17.2-38.3,38.3-38.3
					c21.1,0,38.3,17.2,38.3,38.3S74,93.2,52.9,93.2z M52.9,16.9c-20.9,0-38,17-38,38s17,38,38,38c20.9,0,38-17,38-38
					S73.8,16.9,52.9,16.9z"/>
			</g>
			<radialGradient id="XMLID_55_" cx="56.317" cy="70.8879" r="39.5724" gradientUnits="userSpaceOnUse">
				<stop  offset="0" style="stop-color:#FCD304"/>
				<stop  offset="2.944255e-02" style="stop-color:#FBD004"/>
				<stop  offset="0.6843" style="stop-color:#E49804"/>
				<stop  offset="1" style="stop-color:#DB8204"/>
			</radialGradient>
			<path id="XMLID_236_" opacity="0.19" fill="url(#XMLID_55_)" d="M37.7,73.8c-6.8,0-13.4-1-19.6-2.9C24,83.7,36.7,92.7,51.6,93.2
				c23.9,0.7,43.1-20.5,39-45C78.5,63.7,59.3,73.8,37.7,73.8z"/>
		</g>
	</g>
</g>
<g>
	<g>
		<g>
			<g>
				<g>
					<linearGradient id="SVGID_1_" gradientUnits="userSpaceOnUse" x1="44.073" y1="39.4628" x2="73.1847" y2="87.3851">
						<stop  offset="0" style="stop-color:#FFFFFF"/>
						<stop  offset="1" style="stop-color:#000000;stop-opacity:0"/>
					</linearGradient>
					<path fill="url(#SVGID_1_)" d="M54.8,80.7c-6,0-11.7-2.2-16.1-6.4c-9.5-8.9-10-23.9-1.1-33.4c4.3-4.6,10.2-7.3,16.5-7.5
						c6.3-0.2,12.3,2,16.9,6.4c2.3,2.2,4.2,4.8,5.5,7.7l0.6,1.4H66.5l-0.3-0.4c-0.5-0.7-1.1-1.3-1.7-1.9c-2.8-2.6-6.4-4-10.2-3.8
						c-3.8,0.1-7.3,1.7-9.9,4.5c-2.6,2.8-4,6.4-3.8,10.2c0.1,3.8,1.7,7.3,4.5,9.9c2.8,2.6,6.4,4,10.2,3.8c3.8-0.1,7.3-1.7,9.9-4.5
						c0.5-0.6,1-1.2,1.5-2l0.3-0.5h10.2l-0.5,1.4c-1.1,2.8-2.7,5.3-4.7,7.4c-4.3,4.6-10.2,7.3-16.5,7.5C55.3,80.7,55,80.7,54.8,80.7
						z"/>
				</g>
			</g>
		</g>
		<g>
			<g>
				<g>
					<linearGradient id="SVGID_2_" gradientUnits="userSpaceOnUse" x1="40.5204" y1="33.4785" x2="69.1889" y2="80.6712">
						<stop  offset="0" style="stop-color:#FFFFFF"/>
						<stop  offset="1" style="stop-color:#000000;stop-opacity:0"/>
					</linearGradient>
					<path fill="none" stroke="url(#SVGID_2_)" stroke-width="0.8649" stroke-miterlimit="10" d="M54.8,84.2
						c-6.9,0-13.5-2.6-18.5-7.3C25.4,66.7,24.8,49.5,35,38.5c5-5.3,11.7-8.4,18.9-8.6c7.2-0.2,14.2,2.3,19.5,7.3
						c2.7,2.5,4.8,5.5,6.3,8.8l0.7,1.6H68.3L68,47.2c-0.6-0.8-1.2-1.5-1.9-2.2c-3.2-3-7.4-4.6-11.8-4.4c-4.4,0.1-8.4,2-11.4,5.2
						c-3,3.2-4.6,7.4-4.4,11.8c0.1,4.4,2,8.4,5.2,11.4c3.2,3,7.4,4.6,11.8,4.4c4.4-0.1,8.4-2,11.4-5.2c0.6-0.7,1.2-1.4,1.8-2.3
						l0.3-0.5h11.8l-0.6,1.6c-1.3,3.2-3.1,6.1-5.4,8.6c-5,5.3-11.7,8.4-18.9,8.6C55.5,84.2,55.1,84.2,54.8,84.2z"/>
				</g>
			</g>
		</g>
		<linearGradient id="SVGID_3_" gradientUnits="userSpaceOnUse" x1="2.7684" y1="30.622" x2="76.0803" y2="101.6066">
			<stop  offset="0" style="stop-color:#FFFFFF"/>
			<stop  offset="1" style="stop-color:#000000;stop-opacity:0"/>
		</linearGradient>
		<path fill="url(#SVGID_3_)" d="M27.3,36.8c-4.7,5.4-7.5,12.5-7.5,20.2c0,8.5,3.4,16.2,9,21.8l23.2-23.8L27.3,36.8z"/>
		<g>
			<linearGradient id="SVGID_4_" gradientUnits="userSpaceOnUse" x1="22.5656" y1="14.2001" x2="95.8772" y2="85.1845">
				<stop  offset="0" style="stop-color:#FFFFFF"/>
				<stop  offset="1" style="stop-color:#000000;stop-opacity:0"/>
			</linearGradient>
			<path fill="url(#SVGID_4_)" d="M31.2,36.8l24.7,18.2L50,26.5C42.5,27.6,35.9,31.4,31.2,36.8z"/>
			<linearGradient id="SVGID_5_" gradientUnits="userSpaceOnUse" x1="16.6124" y1="20.3493" x2="89.9238" y2="91.3335">
				<stop  offset="0" style="stop-color:#FFFFFF"/>
				<stop  offset="1" style="stop-color:#000000;stop-opacity:0"/>
			</linearGradient>
			<path fill="url(#SVGID_5_)" d="M74.5,33.4L55.8,55.1L32.6,78.9C38.2,84.5,46,88,54.5,88c17.1,0,30.9-13.8,30.9-30.9
				C85.5,47.6,81.2,39.1,74.5,33.4z"/>
			<linearGradient id="SVGID_6_" gradientUnits="userSpaceOnUse" x1="29.2067" y1="3.9375" x2="102.5195" y2="74.9229">
				<stop  offset="0" style="stop-color:#FFFFFF"/>
				<stop  offset="1" style="stop-color:#000000;stop-opacity:0"/>
			</linearGradient>
			<path fill="url(#SVGID_6_)" d="M55.6,21.7c-1.5,0-3,0.1-4.5,0.3l5.8,28.6l18.6-21.7C70.2,24.4,63.2,21.7,55.6,21.7z"/>
		</g>
		<radialGradient id="SVGID_7_" cx="54.5466" cy="57.0762" r="18.7962" gradientUnits="userSpaceOnUse">
			<stop  offset="0" style="stop-color:#FCD304"/>
			<stop  offset="2.944255e-02" style="stop-color:#FBD004"/>
			<stop  offset="0.6843" style="stop-color:#E49804"/>
			<stop  offset="1" style="stop-color:#DB8204"/>
		</radialGradient>
		<path fill="url(#SVGID_7_)" d="M73.3,57.1c0,10.4-8.4,18.8-18.8,18.8s-18.8-8.4-18.8-18.8c0-10.4,8.4-18.8,18.8-18.8
			S73.3,46.7,73.3,57.1z"/>
	</g>
	<g>
		<g>
			<linearGradient id="SVGID_8_" gradientUnits="userSpaceOnUse" x1="53.3676" y1="56.6466" x2="65.3215" y2="56.6466">
				<stop  offset="0" style="stop-color:#FFFFFF"/>
				<stop  offset="1" style="stop-color:#000000;stop-opacity:0"/>
			</linearGradient>
			<polygon fill="url(#SVGID_8_)" points="65.3,50.9 53.4,62.4 65.3,55 			"/>
			<linearGradient id="SVGID_9_" gradientUnits="userSpaceOnUse" x1="53.3676" y1="54.5594" x2="65.3058" y2="54.5594">
				<stop  offset="0" style="stop-color:#FFFFFF"/>
				<stop  offset="1" style="stop-color:#000000;stop-opacity:0"/>
			</linearGradient>
			<polygon fill="url(#SVGID_9_)" points="61.2,46.7 53.4,62.4 65.3,46.7 			"/>
			<linearGradient id="SVGID_10_" gradientUnits="userSpaceOnUse" x1="53.3676" y1="54.5594" x2="57.0709" y2="54.5594">
				<stop  offset="0" style="stop-color:#FFFFFF"/>
				<stop  offset="1" style="stop-color:#000000;stop-opacity:0"/>
			</linearGradient>
			<polygon fill="url(#SVGID_10_)" points="57.1,46.7 53.4,62.4 53.4,46.7 			"/>
			<linearGradient id="SVGID_11_" gradientUnits="userSpaceOnUse" x1="41.4227" y1="56.7988" x2="65.3058" y2="56.7988">
				<stop  offset="0" style="stop-color:#FFFFFF"/>
				<stop  offset="1" style="stop-color:#000000;stop-opacity:0"/>
			</linearGradient>
			<path fill="url(#SVGID_11_)" d="M65.3,66.9H49.6c-5.9,0-8-3.6-8.2-7.7c0.2-5,1.8-8.8,3.7-12.5H51c-1.2,2.6-8,14.9-0.4,15.7h2.8
				L65.3,66.9z"/>
			<linearGradient id="SVGID_12_" gradientUnits="userSpaceOnUse" x1="53.3676" y1="61.0429" x2="65.3215" y2="61.0429">
				<stop  offset="0" style="stop-color:#FFFFFF"/>
				<stop  offset="1" style="stop-color:#000000;stop-opacity:0"/>
			</linearGradient>
			<polygon fill="url(#SVGID_12_)" points="65.3,59 53.4,62.4 65.3,63.1 			"/>
		</g>
	</g>
</g>
<radialGradient id="SVGID_13_" cx="-5312.1069" cy="-2016.0005" r="25.6651" gradientTransform="matrix(-1.1493 -0.1142 -5.361099e-03 2.621 -5702.2832 4733.6245)" gradientUnits="userSpaceOnUse">
	<stop  offset="0.3599" style="stop-color:#808080"/>
	<stop  offset="0.3846" style="stop-color:#878787"/>
	<stop  offset="0.589" style="stop-color:#BABABA"/>
	<stop  offset="0.767" style="stop-color:#E0E0E0"/>
	<stop  offset="0.9099" style="stop-color:#F7F7F7"/>
	<stop  offset="1" style="stop-color:#FFFFFF"/>
</radialGradient>
<path fill="url(#SVGID_13_)" d="M397,0l-0.2,109.7c-7.5-12.9-12.4-33.4-12.3-56.1S389.5,11.4,397,0z"/>
</svg>
