<?xml version="1.0" encoding="utf-8"?>
<!-- Generator: Adobe Illustrator 24.0.1, SVG Export Plug-In . SVG Version: 6.00 Build 0)  -->
<svg version="1.1" id="Capa_1" xmlns="http://www.w3.org/2000/svg" xmlns:xlink="http://www.w3.org/1999/xlink" x="0px" y="0px"
	 viewBox="0 0 252 61" style="enable-background:new 0 0 252 61;" xml:space="preserve">
<style type="text/css">
	.st0{fill:#136E22;}
	.st1{clip-path:url(#SVGID_2_);}
	.st2{fill:url(#SVGID_3_);}
	.st3{fill:none;stroke:url(#SVGID_4_);stroke-width:0.8649;stroke-miterlimit:10;}
	.st4{fill:url(#SVGID_5_);}
	.st5{fill:url(#SVGID_6_);}
	.st6{fill:url(#SVGID_7_);}
	.st7{fill:url(#SVGID_8_);}
	.st8{fill:url(#SVGID_9_);}
	.st9{fill:url(#SVGID_10_);}
	.st10{fill:url(#SVGID_11_);}
	.st11{fill:url(#SVGID_12_);}
	.st12{fill:url(#SVGID_13_);}
	.st13{fill:#FFFFFF;}
	.st14{font-family:'FuturaBT-BoldCondensed';}
	.st15{font-size:20.9042px;}
</style>
<g>
	<path class="st0" d="M256.3,0H12.8C6.1,0,0.6,5.5,0.6,12.2v36.6C0.6,55.5,6.1,61,12.8,61h243.5"/>
	<g>
		<defs>
			<path id="SVGID_1_" d="M256.3,0H12.8C6.1,0,0.6,5.5,0.6,12.2v36.6C0.6,55.5,6.1,61,12.8,61h243.5V0z"/>
		</defs>
		<clipPath id="SVGID_2_">
			<use xlink:href="#SVGID_1_"  style="overflow:visible;"/>
		</clipPath>
		<g class="st1">
			<g>
				<g>
					<g>
						<g>
							<linearGradient id="SVGID_3_" gradientUnits="userSpaceOnUse" x1="12.7367" y1="9.5712" x2="47.7791" y2="67.2563">
								<stop  offset="0" style="stop-color:#FFFFFF"/>
								<stop  offset="1" style="stop-color:#000000;stop-opacity:0"/>
							</linearGradient>
							<path class="st2" d="M25.6,59.2c-7.2,0-14.1-2.7-19.4-7.7C-5.3,40.8-5.9,22.8,4.8,11.4c5.2-5.5,12.2-8.7,19.8-9
								C32.2,2.1,39.5,4.8,45,10c2.8,2.6,5,5.7,6.6,9.3l0.8,1.7H39.7l-0.4-0.5c-0.7-0.9-1.3-1.6-2-2.3c-3.4-3.1-7.7-4.8-12.3-4.6
								c-4.6,0.2-8.8,2.1-12,5.4c-3.1,3.4-4.8,7.7-4.6,12.3c0.2,4.6,2.1,8.8,5.4,12c3.4,3.1,7.7,4.8,12.3,4.6
								c4.6-0.2,8.8-2.1,12-5.4c0.7-0.7,1.3-1.5,1.9-2.4l0.4-0.6h12.3l-0.7,1.7c-1.3,3.3-3.2,6.3-5.7,9c-5.2,5.5-12.2,8.7-19.8,9
								C26.2,59.2,25.9,59.2,25.6,59.2z"/>
						</g>
					</g>
				</g>
				<g>
					<g>
						<g>
							<linearGradient id="SVGID_4_" gradientUnits="userSpaceOnUse" x1="8.5062" y1="2.4431" x2="42.9235" y2="59.0993">
								<stop  offset="0" style="stop-color:#FFFFFF"/>
								<stop  offset="1" style="stop-color:#000000;stop-opacity:0"/>
							</linearGradient>
							<path class="st3" d="M25.7,63.5c-8.3,0-16.2-3.1-22.3-8.8c-13.2-12.3-13.9-33-1.6-46.2c6-6.4,14.1-10.1,22.8-10.3
								C33.3-2.2,41.7,0.9,48,6.9c3.2,3,5.8,6.6,7.6,10.6l0.9,2H41.9l-0.4-0.6c-0.8-1-1.5-1.8-2.3-2.6c-3.9-3.6-8.9-5.5-14.2-5.3
								c-5.3,0.2-10.2,2.4-13.8,6.3C7.7,21.1,5.8,26.2,6,31.4c0.2,5.3,2.4,10.2,6.3,13.8c3.9,3.6,8.9,5.5,14.2,5.3
								c5.3-0.2,10.2-2.4,13.8-6.3c0.8-0.8,1.4-1.7,2.1-2.8l0.4-0.6h14.2l-0.8,1.9c-1.5,3.8-3.7,7.3-6.5,10.3
								c-6,6.4-14.1,10.1-22.8,10.4C26.4,63.5,26.1,63.5,25.7,63.5z"/>
						</g>
					</g>
				</g>
				<linearGradient id="SVGID_5_" gradientUnits="userSpaceOnUse" x1="-36.9825" y1="-1.0706" x2="51.2646" y2="84.3751">
					<stop  offset="0" style="stop-color:#FFFFFF"/>
					<stop  offset="1" style="stop-color:#000000;stop-opacity:0"/>
				</linearGradient>
				<path class="st4" d="M-7.5,6.4c-5.7,6.5-9.1,15-9.1,24.4c0,10.3,4.2,19.5,10.9,26.3l27.9-28.7L-7.5,6.4z"/>
				<g>
					<linearGradient id="SVGID_6_" gradientUnits="userSpaceOnUse" x1="-13.1522" y1="-20.838" x2="75.0946" y2="64.6075">
						<stop  offset="0" style="stop-color:#FFFFFF"/>
						<stop  offset="1" style="stop-color:#000000;stop-opacity:0"/>
					</linearGradient>
					<path class="st5" d="M-2.8,6.4l29.7,22l-7-34.4C10.9-4.7,2.9-0.2-2.8,6.4z"/>
					<linearGradient id="SVGID_7_" gradientUnits="userSpaceOnUse" x1="-20.3181" y1="-13.436" x2="67.9282" y2="72.009">
						<stop  offset="0" style="stop-color:#FFFFFF"/>
						<stop  offset="1" style="stop-color:#000000;stop-opacity:0"/>
					</linearGradient>
					<path class="st6" d="M49.3,2.3L26.9,28.4L-1,57.1C5.7,63.8,15,68,25.3,68c20.6,0,37.2-16.7,37.2-37.2
						C62.6,19.4,57.4,9.1,49.3,2.3z"/>
					<linearGradient id="SVGID_8_" gradientUnits="userSpaceOnUse" x1="-3.7934" y1="-37.2858" x2="84.4548" y2="48.1609">
						<stop  offset="0" style="stop-color:#FFFFFF"/>
						<stop  offset="1" style="stop-color:#000000;stop-opacity:0"/>
					</linearGradient>
					<path class="st7" d="M28-16c-1.8,0-3.6,0.1-5.4,0.4l7,34.4L52-7.2C45.5-12.7,37.1-16,28-16z"/>
				</g>
				<path class="st0" d="M48,30.8c0,12.5-10.1,22.6-22.6,22.6c-12.5,0-22.6-10.1-22.6-22.6c0-12.5,10.1-22.6,22.6-22.6
					C37.8,8.1,48,18.3,48,30.8z"/>
			</g>
			<g>
				<g>
					<linearGradient id="SVGID_9_" gradientUnits="userSpaceOnUse" x1="23.9249" y1="30.2557" x2="38.3141" y2="30.2557">
						<stop  offset="0" style="stop-color:#FFFFFF"/>
						<stop  offset="1" style="stop-color:#000000;stop-opacity:0"/>
					</linearGradient>
					<polygon class="st8" points="38.3,23.3 23.9,37.2 38.3,28.3 					"/>
					<linearGradient id="SVGID_10_" gradientUnits="userSpaceOnUse" x1="23.9249" y1="27.7434" x2="38.2951" y2="27.7434">
						<stop  offset="0" style="stop-color:#FFFFFF"/>
						<stop  offset="1" style="stop-color:#000000;stop-opacity:0"/>
					</linearGradient>
					<polygon class="st9" points="33.3,18.3 23.9,37.2 38.3,18.3 					"/>
					<linearGradient id="SVGID_11_" gradientUnits="userSpaceOnUse" x1="23.9249" y1="27.7434" x2="28.3826" y2="27.7434">
						<stop  offset="0" style="stop-color:#FFFFFF"/>
						<stop  offset="1" style="stop-color:#000000;stop-opacity:0"/>
					</linearGradient>
					<polygon class="st10" points="28.4,18.3 23.9,37.2 23.9,18.3 					"/>
					<linearGradient id="SVGID_12_" gradientUnits="userSpaceOnUse" x1="9.5466" y1="30.4389" x2="38.2951" y2="30.4389">
						<stop  offset="0" style="stop-color:#FFFFFF"/>
						<stop  offset="1" style="stop-color:#000000;stop-opacity:0"/>
					</linearGradient>
					<path class="st11" d="M38.3,42.6H19.4c-7.1,0-9.6-4.4-9.9-9.2c0.2-6,2.2-10.6,4.5-15h7c-1.4,3.1-9.6,17.9-0.5,18.9h3.4
						L38.3,42.6z"/>
					<linearGradient id="SVGID_13_" gradientUnits="userSpaceOnUse" x1="23.9249" y1="35.5476" x2="38.3141" y2="35.5476">
						<stop  offset="0" style="stop-color:#FFFFFF"/>
						<stop  offset="1" style="stop-color:#000000;stop-opacity:0"/>
					</linearGradient>
					<polygon class="st12" points="38.3,33.1 23.9,37.2 38.3,38 					"/>
				</g>
			</g>
		</g>
	</g>
</g>
<text transform="matrix(1 0 0 1 48.3252 37.9902)" class="st13 st14 st15">COOPERATIVA VIRTUAL</text>
</svg>
